#!OML:ASF F:\twosubjects\two\Thursday\Session 1\justin.ASF
:FULLY-SPECIFIED
:DEGREES
369
root 7.30533 9.14596 -21.7077 -33.2628 -0.124476 0.0831244
lowerback 33.5588 3.48381 -2.48242
upperback 14.2625 3.66544 -0.261269
thorax -1.57806 1.74036 -0.0866198
lowerneck -19.3251 -6.07909 -13.6252
upperneck 2.17808 -5.74093 10.6607
head 4.43457 -2.35114 5.00854
rclavicle 2.70347e-014 -2.94201e-014
rhumerus 7.13035 26.8523 -79.7984
rradius 53.4936
rwrist 19.839
rhand 6.66764 13.6351
rfingers 7.12502
rthumb 31.9593 -13.579
lclavicle 2.70347e-014 -2.94201e-014
lhumerus 17.6337 -37.1935 78.4266
lradius 52.0083
lwrist -39.6309
lhand 15.136 41.7515
lfingers 7.12502
lthumb 39.9796 66.9837
rfemur -59.3131 -21.1598 4.71559
rtibia 87.3122
rfoot 5.77493 7.37931
rtoes -8.6003
lfemur -59.3061 17.9507 -4.20217
ltibia 87.4811
lfoot 4.36973 -20.9571
ltoes -3.45859
370
root 7.30664 9.14969 -21.7174 -33.3537 -0.145466 0.117564
lowerback 33.7633 3.53919 -2.50392
upperback 14.2249 3.7173 -0.309648
thorax -1.68926 1.76767 -0.151057
lowerneck -19.4502 -6.2021 -13.795
upperneck 2.12685 -5.84894 10.7171
head 4.45701 -2.39853 5.04091
rclavicle 2.0276e-014 -6.36111e-015
rhumerus 7.02231 26.8997 -79.8007
rradius 53.2815
rwrist 20.1214
rhand 2.86775 11.703
rfingers 7.12502
rthumb 28.3342 -16.1733
lclavicle 2.0276e-014 -6.36111e-015
lhumerus 17.4062 -36.6387 78.6978
lradius 52.2997
lwrist -39.8603
lhand 16.4977 41.8233
lfingers 7.12502
lthumb 41.2595 66.6566
rfemur -59.1886 -21.066 4.68151
rtibia 87.2196
rfoot 5.69204 7.34734
rtoes -9.47405
lfemur -59.179 18.0656 -4.24539
ltibia 87.3818
lfoot 4.49218 -20.9584
ltoes -2.91992
371
root 7.30763 9.16136 -21.7352 -33.4574 -0.193465 -0.142406
lowerback 34.0766 3.48252 -2.16474
upperback 14.1312 3.7339 -0.385004
thorax -1.88188 1.7956 -0.427167
lowerneck -19.7876 -6.28586 -13.7196
upperneck 2.3297 -5.94498 10.7285
head 4.58088 -2.43548 5.01768
rclavicle -2.96189e-014 9.54166e-015
rhumerus 6.90695 26.98 -79.9777
rradius 53.0007
rwrist 19.9862
rhand 3.19571 12.6813
rfingers 7.12502
rthumb 28.6476 -15.1425
lclavicle -2.96189e-014 9.54166e-015
lhumerus 17.1507 -35.4636 79.1971
lradius 52.2321
lwrist -42.2403
lhand 20.6439 40.1874
lfingers 7.12502
lthumb 45.1345 63.6338
rfemur -58.8959 -20.9946 4.88535
rtibia 87.0782
rfoot 5.6038 7.18366
rtoes -9.88349
lfemur -59.1835 18.1018 -4.06475
ltibia 87.3181
lfoot 4.43746 -21.2403
ltoes -3.88316
372
root 7.30891 9.16316 -21.746 -33.5664 -0.110455 -0.344512
lowerback 34.4062 3.39015 -1.88704
upperback 14.0566 3.68665 -0.515292
thorax -2.05719 1.79091 -0.70788
lowerneck -20.1059 -6.36855 -13.8226
upperneck 2.6388 -6.04091 11.1026
head 4.75702 -2.45326 5.14217
rclavicle -1.09332e-014 2.22639e-014
rhumerus 6.84289 27.0282 -80.2203
rradius 52.8126
rwrist 19.6348
rhand 3.20091 12.4551
rfingers 7.12502
rthumb 28.6525 -15.3679
lclavicle -1.09332e-014 2.22639e-014
lhumerus 17.1653 -35.636 79.0108
lradius 52.1823
lwrist -42.396
lhand 19.953 40.9455
lfingers 7.12502
lthumb 44.4913 64.6427
rfemur -58.6771 -21.0786 4.9393
rtibia 87.0015
rfoot 5.60323 7.13066
rtoes -9.64885
lfemur -59.0116 17.9352 -3.92478
ltibia 87.1987
lfoot 4.31422 -21.2525
ltoes -3.95876
373
root 7.31069 9.15906 -21.7492 -33.6259 -0.135464 -0.522405
lowerback 34.5185 3.34126 -1.68768
upperback 14.0848 3.68332 -0.550917
thorax -2.05482 1.79976 -0.851237
lowerneck -20.4798 -6.48485 -14.0317
upperneck 2.92941 -6.13986 11.3987
head 4.93602 -2.47605 5.25787
rclavicle 4.17448e-015 4.77083e-015
rhumerus 6.84177 26.8528 -80.3794
rradius 52.6724
rwrist 19.7796
rhand 2.95497 12.2303
rfingers 7.12502
rthumb 28.4175 -15.6322
lclavicle 4.17448e-015 4.77083e-015
lhumerus 17.4038 -35.5306 78.8593
lradius 52.0335
lwrist -42.4286
lhand 20.6825 40.5346
lfingers 7.12502
lthumb 45.1704 63.9667
rfemur -58.5832 -21.1036 5.0786
rtibia 86.9438
rfoot 5.6134 7.07461
rtoes -9.52905
lfemur -59.011 17.9419 -3.78576
ltibia 87.1977
lfoot 3.90304 -21.2414
ltoes -5.20394
374
root 7.30963 9.15821 -21.7534 -33.6457 -0.366752 -0.784834
lowerback 34.3837 3.35607 -1.46247
upperback 14.1774 3.78281 -0.442706
thorax -1.90448 1.85457 -0.879483
lowerneck -20.5013 -6.60576 -14.2576
upperneck 2.79754 -6.23904 11.4691
head 4.91976 -2.5216 5.30532
rclavicle 3.67752e-014 -5.48646e-014
rhumerus 6.79267 26.5767 -80.4484
rradius 52.5162
rwrist 20.267
rhand 2.0715 12.1355
rfingers 7.12502
rthumb 27.573 -15.8648
lclavicle 3.67752e-014 -5.48646e-014
lhumerus 17.6964 -35.3624 78.8319
lradius 51.7321
lwrist -41.8134
lhand 20.4168 40.4552
lfingers 7.12502
lthumb 44.9231 63.985
rfemur -58.5364 -20.9198 5.47292
rtibia 86.879
rfoot 5.68053 6.93129
rtoes -9.34555
lfemur -59.2544 18.283 -3.50264
ltibia 87.3243
lfoot 3.63804 -21.3533
ltoes -6.5171
375
root 7.30677 9.1574 -21.762 -33.7136 -0.476903 -0.836237
lowerback 34.3636 3.43501 -1.48949
upperback 14.2727 3.87729 -0.395208
thorax -1.798 1.89828 -0.841626
lowerneck -20.3998 -6.71017 -14.6924
upperneck 2.57585 -6.31153 11.903
head 4.87788 -2.53713 5.51155
rclavicle 5.56597e-015 -1.11319e-014
rhumerus 6.75822 26.4103 -80.4759
rradius 52.4159
rwrist 20.6103
rhand 1.77234 11.9942
rfingers 7.12502
rthumb 27.2868 -16.0514
lclavicle 5.56597e-015 -1.11319e-014
lhumerus 17.8412 -35.0439 78.9124
lradius 51.8064
lwrist -42.3943
lhand 21.1877 39.9974
lfingers 7.12502
lthumb 45.6399 63.2404
rfemur -58.4771 -20.7352 5.59393
rtibia 86.8334
rfoot 5.76977 6.87526
rtoes -9.14675
lfemur -59.2259 18.5192 -3.37221
ltibia 87.3188
lfoot 3.86202 -21.4191
ltoes -5.84285
376
root 7.30733 9.15367 -21.7693 -33.718 -0.321182 -0.68498
lowerback 34.4032 3.48513 -1.70526
upperback 14.2861 3.86766 -0.501663
thorax -1.79975 1.88869 -0.837597
lowerneck -20.3824 -6.75432 -14.863
upperneck 2.48537 -6.35639 12.2304
head 4.87432 -2.54072 5.64265
rclavicle -4.37326e-014 1.74931e-014
rhumerus 6.67008 26.3149 -80.651
rradius 52.3349
rwrist 20.7719
rhand 3.28254 13.0183
rfingers 7.12502
rthumb 28.7305 -14.7915
lclavicle -4.37326e-014 1.74931e-014
lhumerus 17.8101 -34.9728 78.932
lradius 51.7681
lwrist -42.472
lhand 19.5475 41.1648
lfingers 7.12502
lthumb 44.1133 65.0052
rfemur -58.4914 -20.8077 5.35109
rtibia 86.8164
rfoot 5.8152 6.88708
rtoes -8.7818
lfemur -59.1911 18.4795 -3.61558
ltibia 87.2484
lfoot 4.18229 -21.4694
ltoes -5.0281
377
root 7.31032 9.14729 -21.7716 -33.6836 -0.175519 -0.701018
lowerback 34.3551 3.49643 -1.81932
upperback 14.3138 3.85122 -0.479726
thorax -1.75968 1.87488 -0.747297
lowerneck -20.6876 -6.83349 -15.2497
upperneck 2.64348 -6.36286 12.5712
head 4.99849 -2.51813 5.81553
rclavicle 7.7526e-015 -6.36111e-015
rhumerus 6.66403 26.4062 -80.598
rradius 52.2381
rwrist 20.6644
rhand 0.84683 9.40581
rfingers 7.12502
rthumb 26.4012 -18.7759
lclavicle 7.7526e-015 -6.36111e-015
lhumerus 17.8406 -34.7025 79.0704
lradius 51.7715
lwrist -42.7963
lhand 19.4741 42.421
lfingers 7.12502
lthumb 44.0449 66.2871
rfemur -58.5188 -20.959 5.23754
rtibia 86.8192
rfoot 5.87332 6.83357
rtoes -8.26162
lfemur -59.2918 18.381 -3.7263
ltibia 87.205
lfoot 4.57499 -21.3713
ltoes -4.06211
378
root 7.3125 9.13916 -21.7696 -33.6836 -0.195784 -0.945117
lowerback 34.2137 3.51174 -1.80319
upperback 14.4651 3.89561 -0.231426
thorax -1.56307 1.88673 -0.501067
lowerneck -21.2275 -7.02143 -15.9201
upperneck 2.92834 -6.40252 12.8387
head 5.20617 -2.513 6.00493
rclavicle -9.14409e-015 -1.51076e-014
rhumerus 6.93559 26.8244 -80.0058
rradius 52.1061
rwrist 20.5707
rhand 1.60526 10.8538
rfingers 7.12502
rthumb 27.127 -17.2169
lclavicle -9.14409e-015 -1.51076e-014
lhumerus 18.1501 -35.7436 78.6311
lradius 52.0299
lwrist -40.1976
lhand 15.3836 44.3347
lfingers 7.12502
lthumb 40.2127 69.4962
rfemur -58.4949 -20.9824 5.41536
rtibia 86.8345
rfoot 5.78485 6.75265
rtoes -8.84884
lfemur -59.356 18.4063 -3.48441
ltibia 87.1666
lfoot 4.93996 -21.3295
ltoes -3.03165
379
root 7.31292 9.13856 -21.7715 -33.6687 -0.131659 -0.945025
lowerback 34.0776 3.5877 -2.00077
upperback 14.5484 3.94221 -0.122382
thorax -1.44226 1.89564 -0.290993
lowerneck -21.2466 -7.08695 -15.653
upperneck 2.81686 -6.48292 12.2095
head 5.14433 -2.58794 5.73909
rclavicle -4.05521e-014 2.3059e-014
rhumerus 7.07182 27.194 -79.6054
rradius 51.9338
rwrist 20.7619
rhand 1.39195 11.2137
rfingers 7.12502
rthumb 26.9229 -16.8886
lclavicle -4.05521e-014 2.3059e-014
lhumerus 18.1073 -34.4345 79.1874
lradius 52.1018
lwrist -42.5178
lhand 21.5649 42.1768
lfingers 7.12502
lthumb 45.99 65.2755
rfemur -58.4943 -21.0028 5.37301
rtibia 86.8321
rfoot 5.63898 6.7638
rtoes -9.71364
lfemur -59.392 18.4649 -3.59333
ltibia 87.1188
lfoot 4.83938 -21.3526
ltoes -3.20534
380
root 7.31314 9.14245 -21.775 -33.6936 -0.0118291 -0.762146
lowerback 34.1009 3.67352 -2.24779
upperback 14.528 3.96874 -0.232336
thorax -1.47588 1.90234 -0.286141
lowerneck -21.1209 -7.07378 -15.1729
upperneck 2.70286 -6.55736 11.7612
head 5.06293 -2.64991 5.50365
rclavicle -2.40529e-014 7.15625e-015
rhumerus 6.96627 27.3475 -79.6442
rradius 51.8939
rwrist 20.6467
rhand 1.31418 11.1105
rfingers 7.12502
rthumb 26.8485 -17.0033
lclavicle -2.40529e-014 7.15625e-015
lhumerus 18.1781 -34.414 79.1113
lradius 51.9198
lwrist -42.5495
lhand 20.911 42.3011
lfingers 7.12502
lthumb 45.3828 65.6483
rfemur -58.4584 -21.0442 5.1353
rtibia 86.808
rfoot 5.81468 6.88831
rtoes -9.35409
lfemur -59.301 18.4426 -3.87258
ltibia 87.063
lfoot 4.6596 -21.2626
ltoes -3.44495
381
root 7.31611 9.14375 -21.7763 -33.7358 0.0583585 -0.809512
lowerback 34.2289 3.6333 -2.16918
upperback 14.4918 3.93317 -0.334496
thorax -1.54858 1.89351 -0.428538
lowerneck -21.0652 -7.08352 -15.2682
upperneck 2.7233 -6.57847 11.9815
head 5.07825 -2.64918 5.59037
rclavicle -2.68359e-014 1.51076e-014
rhumerus 6.99013 27.5232 -79.5957
rradius 51.8406
rwrist 20.2891
rhand 2.09026 11.5224
rfingers 7.12502
rthumb 27.5909 -16.475
lclavicle -2.68359e-014 1.51076e-014
lhumerus 18.1782 -34.5025 78.9373
lradius 52.0217
lwrist -42.8048
lhand 20.4986 42.1689
lfingers 7.12502
lthumb 44.9993 65.6687
rfemur -58.3593 -21.1445 5.08227
rtibia 86.7713
rfoot 6.0392 6.9659
rtoes -8.82495
lfemur -59.2966 18.4166 -3.89108
ltibia 87.0719
lfoot 4.61612 -21.3053
ltoes -3.35561
382
root 7.31889 9.14382 -21.7774 -33.7792 0.0448193 -0.979988
lowerback 34.3196 3.57541 -1.9973
upperback 14.5044 3.90997 -0.355713
thorax -1.55715 1.89115 -0.536139
lowerneck -20.9355 -7.09277 -15.3073
upperneck 2.54565 -6.5909 12.0042
head 5.00707 -2.65705 5.60408
rclavicle 1.05356e-014 1.51076e-014
rhumerus 7.28545 27.7451 -79.3629
rradius 51.5664
rwrist 20.3382
rhand 9.50602 15.2384
rfingers 7.12502
rthumb 34.6577 -11.3969
lclavicle 1.05356e-014 1.51076e-014
lhumerus 18.2354 -34.574 78.7861
lradius 52.145
lwrist -42.5814
lhand 21.1338 41.7975
lfingers 7.12502
lthumb 45.5898 65.0609
rfemur -58.2533 -21.2016 5.19669
rtibia 86.7339
rfoot 5.9902 6.909
rtoes -8.97006
lfemur -59.3759 18.5393 -3.78098
ltibia 87.0932
lfoot 4.71085 -21.4742
ltoes -2.9821
